<?xml version="1.0" encoding="UTF-8"?>
<svg id="Layer_2" data-name="Layer 2" xmlns="http://www.w3.org/2000/svg" viewBox="0 0 178.9 151.6">
  <defs>
    <style>
      .cls-1 {
        isolation: isolate;
      }

      .cls-2 {
        stroke: #a77d52;
        stroke-width: .4px;
      }

      .cls-2, .cls-3, .cls-4 {
        fill: none;
      }

      .cls-2, .cls-3, .cls-4, .cls-5 {
        stroke-miterlimit: 10;
      }

      .cls-6 {
        fill: #d87941;
      }

      .cls-3 {
        stroke-width: 1.51px;
      }

      .cls-3, .cls-4, .cls-5 {
        stroke: #222426;
      }

      .cls-7 {
        fill: #5dc3b2;
      }

      .cls-4, .cls-5 {
        stroke-width: 1.69px;
      }

      .cls-5 {
        fill: #daa360;
      }

      .cls-8 {
        fill: #010101;
      }
    </style>
  </defs>
  <g id="Layer_1-2" data-name="Layer 1">
    <path class="cls-3" d="M78.6,54.8l-.4-35.1c0-.8,1-1.4,2.1-1.4h36.6c1.2,0,2.1,.6,2.1,1.4v14.7"/>
    <path class="cls-4" d="M102.1,54.5v-17.9c0-1.3,.8-2.3,1.7-2.3h40.4c.9,0,1.7,1.1,1.7,2.3v43.5"/>
    <path class="cls-7" d="M99.2,69.9h5.3c.3,0,.4,.3,.4,.4v9.1h-6.2v-9.1c0-.2,.2-.4,.5-.4Z"/>
    <path class="cls-4" d="M77.8,43.5H38.1c-1.3,0-2.3,1.1-2.3,2.5v34"/>
    <line class="cls-2" x1="91.6" y1="40" x2="90.2" y2="54.1"/>
    <line class="cls-2" x1="94.6" y1="40" x2="95.8" y2="54.1"/>
    <line class="cls-2" x1="90.7" y1="43.2" x2="95.4" y2="43.2"/>
    <line class="cls-2" x1="90.9" y1="47.3" x2="95.7" y2="47.3"/>
    <line class="cls-2" x1="90.1" y1="51.3" x2="95.4" y2="51.3"/>
    <path class="cls-7" d="M125.7,45.6h4.6c.2,0,.4,.2,.4,.4v7.9h-5.3v-7.9c0-.2,.1-.4,.3-.4Z"/>
    <ellipse class="cls-6" cx="146.2" cy="11.1" rx="10.9" ry="11.1"/>
    <circle class="cls-5" cx="89.6" cy="20.5" r=".1"/>
    <circle class="cls-5" cx="93.5" cy="20.5" r=".1"/>
    <circle class="cls-5" cx="97.5" cy="20.5" r=".1"/>
    <circle class="cls-5" cx="101" cy="20.5" r=".1"/>
    <circle class="cls-5" cx="105" cy="20.5" r=".1"/>
    <circle class="cls-5" cx="108.8" cy="20.5" r=".1"/>
    <circle class="cls-5" cx="133.1" cy="37.6" r=".1"/>
    <circle class="cls-5" cx="137.1" cy="37.6" r=".1"/>
    <circle class="cls-5" cx="141" cy="37.6" r=".1"/>
    <circle class="cls-5" cx="40.8" cy="46.7" r=".1"/>
    <circle class="cls-5" cx="44.7" cy="46.7" r=".1"/>
    <circle class="cls-5" cx="48.6" cy="46.7" r=".1"/>
    <circle class="cls-5" cx="85.4" cy="57.2" r=".1"/>
    <circle class="cls-5" cx="89.4" cy="57.2" r=".1"/>
    <circle class="cls-5" cx="93.3" cy="57.2" r=".1"/>
    <path class="cls-7" d="M48.4,69.9h5.3c.3,0,.4,.3,.4,.4v9.1h-6.2v-9.1c0-.2,.2-.4,.5-.4Z"/>
    <path class="cls-4" d="M132.9,80v-23.3c0-1.1-.8-2-2-2h-57.1c-1.1,0-2,.8-2,2v23.3"/>
    <g class="cls-1">
      <path class="cls-8" d="M32.4,114.9l12.2,35.3h3.7v.9h-15.3v-.9h4.4l-9-27.7-9.7,27.7h5v.9H13.4v-.9h4.4l12.5-35.3h2.1Zm-10.4,25.2v-.9h14.9v.9h-14.9Z"/>
      <path class="cls-8" d="M62.9,151.6c-2.1,0-4-.4-5.7-1.3-1.7-.9-3-2.1-4-3.8s-1.5-3.8-1.5-6.3c0-2.2,.4-4.1,1.3-5.8,.9-1.7,2.2-3.1,3.9-4.1s3.8-1.5,6.2-1.5c1.8,0,3.3,.3,4.6,.9,1.3,.6,2.3,1.3,3,2.2s1.1,1.9,1.1,3c0,1-.3,1.8-1,2.4-.6,.6-1.4,.9-2.3,.9-.5,0-1-.1-1.6-.3-.5-.2-1-.6-1.3-1.1s-.5-1.1-.5-1.9c0-1,.3-1.8,1-2.3,.7-.6,1.5-.8,2.4-.8s1.6,.3,2.3,.8c.6,.5,1,1.3,1,2.3h-.9c0-.7-.2-1.4-.6-2.1-.4-.6-.9-1.2-1.6-1.6-.7-.4-1.4-.8-2.2-1s-1.6-.4-2.3-.4c-1.2,0-2.2,.3-3,1-.8,.6-1.3,1.5-1.7,2.5s-.7,2.2-.8,3.4-.2,2.4-.2,3.5c0,1.4,.1,2.6,.3,3.9,.2,1.2,.5,2.3,.9,3.2s1,1.7,1.7,2.2,1.7,.8,2.8,.8c1.2,0,2.3-.2,3.2-.7s1.7-1.1,2.3-2c.6-.8,1.1-1.8,1.5-2.9h1c-.6,2-1.6,3.7-3.1,4.9-1.6,1.4-3.6,2-6.2,2Z"/>
      <path class="cls-8" d="M87.6,151.6c-2.1,0-4-.4-5.7-1.3-1.7-.9-3-2.1-4-3.8s-1.5-3.8-1.5-6.3c0-2.2,.4-4.1,1.3-5.8,.9-1.7,2.2-3.1,3.9-4.1s3.8-1.5,6.2-1.5c1.8,0,3.3,.3,4.6,.9,1.3,.6,2.3,1.3,3,2.2s1.1,1.9,1.1,3c0,1-.3,1.8-1,2.4s-1.4,.9-2.3,.9c-.5,0-1-.1-1.6-.3-.5-.2-1-.6-1.3-1.1s-.5-1.1-.5-1.9c0-1,.3-1.8,1-2.3,.7-.6,1.5-.8,2.4-.8s1.6,.3,2.3,.8c.6,.5,1,1.3,1,2.3h-1.1c0-.7-.2-1.4-.6-2.1-.4-.6-.9-1.2-1.6-1.6-.7-.4-1.4-.8-2.2-1s-1.6-.4-2.3-.4c-1.2,0-2.2,.3-3,1-.8,.6-1.3,1.5-1.7,2.5s-.7,2.2-.8,3.4-.2,2.4-.2,3.5c0,1.4,.1,2.6,.3,3.9,.2,1.2,.5,2.3,.9,3.2s1,1.7,1.7,2.2,1.7,.8,2.8,.8c1.2,0,2.3-.2,3.2-.7s1.7-1.1,2.3-2c.6-.8,1.1-1.8,1.5-2.9h1c-.6,2-1.6,3.7-3.1,4.9-1.4,1.4-3.4,2-6,2Z"/>
      <path class="cls-8" d="M112.2,151.6c-2.1,0-4-.4-5.7-1.3-1.7-.9-3-2.2-4-3.9s-1.5-3.7-1.5-6.2,.5-4.5,1.4-6.2,2.2-3,3.9-3.9c1.6-.9,3.5-1.3,5.7-1.3s4.2,.5,5.6,1.4c1.4,.9,2.5,2.1,3.2,3.7s1,3.1,1,4.9h-17.6v-.9h11.4c0-.9-.1-1.8-.1-2.7-.1-.9-.2-1.8-.5-2.6-.2-.8-.6-1.5-1.1-2s-1.1-.7-2-.7-1.7,.3-2.3,.8-1.1,1.3-1.4,2.2c-.3,.9-.6,2-.7,3.2-.1,1.2-.2,2.5-.2,3.9,0,1.5,.1,2.8,.2,4.1,.2,1.3,.5,2.4,.9,3.4s1,1.7,1.7,2.3,1.7,.8,2.8,.8c2.1,0,3.8-.5,5.1-1.6,1.4-1.1,2.4-2.5,3-4.1h1c-.6,1.9-1.7,3.6-3.4,4.9-1.5,1.2-3.7,1.8-6.4,1.8Z"/>
      <path class="cls-8" d="M134.2,129.3v20.9h2.7v.9h-11.5v-.9h3.2v-20h-3.2v-.9h8.8Zm14.4,6.7v14.2h3.2v.9h-11.5v-.9h2.7v-13.6c0-1.3-.1-2.4-.2-3.3-.1-.9-.4-1.6-.7-2-.4-.5-.9-.7-1.6-.7-1.1,0-2,.3-2.8,.9-.8,.6-1.4,1.4-2,2.4-.5,1-.9,2.1-1.2,3.2s-.4,2.3-.4,3.3l-.7,.1c0-1.1,.1-2.3,.4-3.7,.3-1.3,.7-2.6,1.4-3.9,.6-1.2,1.5-2.2,2.6-3s2.5-1.2,4.2-1.2c1.8,0,3.2,.3,4.1,.9,.9,.6,1.6,1.5,1.9,2.5,.4,1.3,.6,2.5,.6,3.9Z"/>
      <path class="cls-8" d="M154,130.3v-.9h14v.9h-14Zm8.5,21.2c-1.4,0-2.5-.3-3.3-.8s-1.3-1.2-1.5-2.1c-.3-.9-.4-1.8-.4-2.8v-21.1c.9,0,1.9-.1,3-.4,1.1-.3,2-.6,2.6-1v23.5c0,1.2,.1,2,.4,2.5s.8,.7,1.4,.7c.7,0,1.4-.3,2.1-.9,.7-.6,1.3-1.4,1.7-2.3l.8,.5c-.6,1.3-1.5,2.4-2.6,3.3-.9,.5-2.4,.9-4.2,.9Z"/>
    </g>
    <g class="cls-1">
      <path class="cls-8" d="M18.1,114.4c-3.7,0-6.9-.9-9.6-2.6-2.7-1.7-4.8-4.1-6.3-7s-2.2-6.4-2.2-10.2,.7-7.2,2.2-10.2,3.6-5.3,6.3-7,5.9-2.6,9.6-2.6c1.6,0,3.2,.3,4.6,.8,1.4,.6,2.7,1.4,3.9,2.4l3.5-2.7h.9v11h-1.1c-.4-2.1-1.2-3.9-2.3-5.4s-2.4-2.7-4-3.6c-1.6-.9-3.3-1.3-5.1-1.3-2,0-3.8,.5-5.2,1.6-1.4,1-2.5,2.5-3.4,4.2s-1.4,3.8-1.8,6c-.4,2.2-.6,4.5-.6,6.8s.2,4.6,.6,6.8c.4,2.2,1,4.2,1.8,6s2,3.2,3.4,4.2,3.1,1.6,5.2,1.6c1.7,0,3.2-.3,4.5-.8s2.5-1.3,3.5-2.2,1.8-2,2.4-3.3c.6-1.3,1.1-2.6,1.4-4h1.1v11h-.9l-3.3-2.9c-1.2,1-2.5,1.9-4.1,2.5-1.4,.6-3.1,.9-5,.9Z"/>
      <path class="cls-8" d="M49.1,114.4c-2.5,0-4.7-.6-6.5-1.7s-3.2-2.6-4.2-4.5-1.5-3.9-1.5-6.2,.5-4.3,1.5-6.2,2.4-3.4,4.2-4.5,4-1.7,6.5-1.7,4.7,.6,6.5,1.7c1.8,1.1,3.2,2.6,4.2,4.5s1.5,3.9,1.5,6.2-.5,4.3-1.5,6.2-2.4,3.4-4.2,4.5-4,1.7-6.5,1.7Zm0-1c1.1,0,2-.3,2.8-1,.7-.7,1.3-1.5,1.7-2.6s.7-2.3,.9-3.7,.2-2.7,.2-4.1-.1-2.8-.2-4.1c-.2-1.3-.4-2.6-.9-3.6-.4-1.1-1-1.9-1.7-2.6-.7-.7-1.7-1-2.8-1s-2,.3-2.8,1c-.7,.7-1.3,1.5-1.7,2.6s-.7,2.3-.9,3.6-.2,2.7-.2,4.1,.1,2.8,.2,4.1c.2,1.4,.4,2.6,.9,3.7,.4,1.1,1,2,1.7,2.6,.7,.7,1.7,1,2.8,1Z"/>
      <path class="cls-8" d="M65.1,126.8v-1h3.5v-34.6h-3.5v-1h9.6v7.3c.5-2.4,1.5-4.3,2.9-5.7s3.2-2.1,5.3-2.1c1.8,0,3.5,.5,5.2,1.5,1.6,1,3,2.4,4,4.2s1.5,4,1.5,6.6-.5,4.8-1.5,6.6-2.3,3.3-4,4.3c-1.6,1-3.4,1.5-5.2,1.5-2.1,0-3.8-.7-5.3-2.1s-2.4-3.3-2.9-5.7v19.1h3.4v1h-13v.1Zm16.4-13.9c1.1,0,2-.4,2.8-1.2s1.3-2,1.7-3.6,.6-3.6,.6-6-.2-4.4-.6-6c-.4-1.6-1-2.8-1.7-3.6-.8-.8-1.7-1.2-2.8-1.2s-2.2,.4-3.2,1.2-1.9,2-2.5,3.6c-.7,1.6-1,3.6-1,5.9s.3,4.3,1,5.9c.7,1.6,1.5,2.8,2.5,3.7,1,.9,2.1,1.3,3.2,1.3Z"/>
      <path class="cls-8" d="M97.4,126.8v-1h3.5v-34.6h-3.5v-1h9.6v7.3c.5-2.4,1.5-4.3,2.9-5.7s3.2-2.1,5.3-2.1c1.8,0,3.5,.5,5.2,1.5,1.6,1,3,2.4,4,4.2s1.5,4,1.5,6.6-.5,4.8-1.5,6.6-2.3,3.3-4,4.3-3.4,1.5-5.2,1.5c-2.1,0-3.8-.7-5.3-2.1-1.4-1.4-2.4-3.3-2.9-5.7v19.1h3.4v1h-13v.1Zm16.4-13.9c1.1,0,2-.4,2.8-1.2s1.3-2,1.7-3.6,.6-3.6,.6-6-.2-4.4-.6-6c-.4-1.6-1-2.8-1.7-3.6-.8-.8-1.7-1.2-2.8-1.2s-2.2,.4-3.2,1.2-1.9,2-2.5,3.6c-.7,1.6-1,3.6-1,5.9s.3,4.3,1,5.9c.7,1.6,1.5,2.8,2.5,3.7,.9,.9,2,1.3,3.2,1.3Z"/>
      <path class="cls-8" d="M142.6,114.4c-2.3,0-4.4-.5-6.2-1.5-1.8-1-3.3-2.4-4.3-4.2-1.1-1.8-1.6-4.1-1.6-6.7s.5-4.9,1.5-6.7,2.4-3.2,4.2-4.2c1.8-1,3.8-1.4,6.2-1.4s4.5,.5,6.1,1.5,2.7,2.3,3.5,4c.7,1.6,1.1,3.4,1.1,5.3h-19.2v-1h12.4c0-.9-.1-1.9-.1-3-.1-1-.2-2-.5-2.8-.3-.9-.6-1.6-1.2-2.1-.5-.5-1.2-.8-2.2-.8s-1.8,.3-2.5,.9c-.7,.6-1.2,1.4-1.5,2.4-.4,1-.6,2.2-.8,3.5-.1,1.3-.2,2.7-.2,4.2,0,1.6,.1,3.1,.3,4.5,.2,1.4,.5,2.6,.9,3.6s1.1,1.9,1.9,2.5,1.8,.9,3.1,.9c2.2,0,4.1-.6,5.6-1.8s2.6-2.7,3.2-4.5h1.1c-.7,2.1-1.9,3.9-3.6,5.3-1.9,1.4-4.2,2.1-7.2,2.1Z"/>
      <path class="cls-8" d="M166.5,90.2v22.7h3.9v1h-13.4v-1h3.5v-21.7h-3.5v-1h9.5Zm-.6,12.7c0-1.6,.1-3.2,.5-4.8,.3-1.6,.8-3,1.4-4.2,.6-1.3,1.4-2.3,2.4-3s2.1-1.1,3.5-1.1c1.1,0,2,.2,2.8,.7s1.3,1,1.7,1.8c.4,.7,.6,1.5,.6,2.3,0,1.1-.3,2-1,2.8s-1.6,1.2-2.7,1.2-2-.3-2.7-1-1-1.5-1-2.5c0-1.1,.4-2,1.1-2.7s1.6-1,2.7-1c.7,0,1.3,.2,1.9,.5s1,.7,1.3,1.2,.5,1,.5,1.6h-1c0-.7-.2-1.3-.5-1.8-.4-.6-.8-1-1.5-1.3-.6-.3-1.3-.5-2.1-.5-1,0-2,.3-2.9,1s-1.6,1.6-2.3,2.7c-.6,1.1-1.1,2.4-1.4,3.9s-.5,3-.5,4.5h-.8v-.3Z"/>
    </g>
  </g>
</svg>